<svg xmlns="http://www.w3.org/2000/svg" xmlns:xlink="http://www.w3.org/1999/xlink" contentStyleType="text/css" height="938px" preserveAspectRatio="none" style="width:2160px;height:938px;background:#FFFFFF;" version="1.1" viewBox="0 0 2160 938" width="2160px" zoomAndPan="magnify"><defs/><g><!--cluster domain--><g id="cluster_domain"><path d="M8.5,6.0137 L59.2793,6.0137 A3.75,3.75 0 0 1 61.7793,8.5137 L68.7793,30.6348 L1141.5,30.6348 A2.5,2.5 0 0 1 1144,33.1348 L1144,928.5137 A2.5,2.5 0 0 1 1141.5,931.0137 L8.5,931.0137 A2.5,2.5 0 0 1 6,928.5137 L6,8.5137 A2.5,2.5 0 0 1 8.5,6.0137 " fill="none" style="stroke:#000000;stroke-width:1.5;"/><line style="stroke:#000000;stroke-width:1.5;" x1="6" x2="68.7793" y1="30.6348" y2="30.6348"/><text fill="#000000" font-family="sans-serif" font-size="14" font-weight="bold" lengthAdjust="spacing" textLength="49.7793" x="10" y="23.1211">domain</text></g><!--cluster entities--><g id="cluster_entities"><path d="M32.5,276.0137 L82.5137,276.0137 A3.75,3.75 0 0 1 85.0137,278.5137 L92.0137,300.6348 L412.5,300.6348 A2.5,2.5 0 0 1 415,303.1348 L415,904.5137 A2.5,2.5 0 0 1 412.5,907.0137 L32.5,907.0137 A2.5,2.5 0 0 1 30,904.5137 L30,278.5137 A2.5,2.5 0 0 1 32.5,276.0137 " fill="none" style="stroke:#000000;stroke-width:1.5;"/><line style="stroke:#000000;stroke-width:1.5;" x1="30" x2="92.0137" y1="300.6348" y2="300.6348"/><text fill="#000000" font-family="sans-serif" font-size="14" font-weight="bold" lengthAdjust="spacing" textLength="49.0137" x="34" y="293.1211">entities</text></g><!--cluster factories--><g id="cluster_factories"><path d="M441.5,685.0137 L500.8584,685.0137 A3.75,3.75 0 0 1 503.3584,687.5137 L510.3584,709.6348 L1117.5,709.6348 A2.5,2.5 0 0 1 1120,712.1348 L1120,820.5137 A2.5,2.5 0 0 1 1117.5,823.0137 L441.5,823.0137 A2.5,2.5 0 0 1 439,820.5137 L439,687.5137 A2.5,2.5 0 0 1 441.5,685.0137 " fill="none" style="stroke:#000000;stroke-width:1.5;"/><line style="stroke:#000000;stroke-width:1.5;" x1="439" x2="510.3584" y1="709.6348" y2="709.6348"/><text fill="#000000" font-family="sans-serif" font-size="14" font-weight="bold" lengthAdjust="spacing" textLength="58.3584" x="443" y="702.1211">factories</text></g><!--cluster services--><g id="cluster_services"><path d="M690.5,51.0137 L747.5547,51.0137 A3.75,3.75 0 0 1 750.0547,53.5137 L757.0547,75.6348 L1049.5,75.6348 A2.5,2.5 0 0 1 1052,78.1348 L1052,523.5137 A2.5,2.5 0 0 1 1049.5,526.0137 L690.5,526.0137 A2.5,2.5 0 0 1 688,523.5137 L688,53.5137 A2.5,2.5 0 0 1 690.5,51.0137 " fill="none" style="stroke:#000000;stroke-width:1.5;"/><line style="stroke:#000000;stroke-width:1.5;" x1="688" x2="757.0547" y1="75.6348" y2="75.6348"/><text fill="#000000" font-family="sans-serif" font-size="14" font-weight="bold" lengthAdjust="spacing" textLength="56.0547" x="692" y="68.1211">services</text></g><!--cluster infrastructure--><g id="cluster_infrastructure"><path d="M1170.5,612.0137 L1262.5205,612.0137 A3.75,3.75 0 0 1 1265.0205,614.5137 L1272.0205,636.6348 L2150.5,636.6348 A2.5,2.5 0 0 1 2153,639.1348 L2153,872.5137 A2.5,2.5 0 0 1 2150.5,875.0137 L1170.5,875.0137 A2.5,2.5 0 0 1 1168,872.5137 L1168,614.5137 A2.5,2.5 0 0 1 1170.5,612.0137 " fill="none" style="stroke:#000000;stroke-width:1.5;"/><line style="stroke:#000000;stroke-width:1.5;" x1="1168" x2="1272.0205" y1="636.6348" y2="636.6348"/><text fill="#000000" font-family="sans-serif" font-size="14" font-weight="bold" lengthAdjust="spacing" textLength="91.0205" x="1172" y="629.1211">infrastructure</text></g><!--cluster connectors--><g id="cluster_connectors"><path d="M1194.5,657.0137 L1270.9619,657.0137 A3.75,3.75 0 0 1 1273.4619,659.5137 L1280.4619,681.6348 L1541.5,681.6348 A2.5,2.5 0 0 1 1544,684.1348 L1544,848.5137 A2.5,2.5 0 0 1 1541.5,851.0137 L1194.5,851.0137 A2.5,2.5 0 0 1 1192,848.5137 L1192,659.5137 A2.5,2.5 0 0 1 1194.5,657.0137 " fill="none" style="stroke:#000000;stroke-width:1.5;"/><line style="stroke:#000000;stroke-width:1.5;" x1="1192" x2="1280.4619" y1="681.6348" y2="681.6348"/><text fill="#000000" font-family="sans-serif" font-size="14" font-weight="bold" lengthAdjust="spacing" textLength="75.4619" x="1196" y="674.1211">connectors</text></g><!--cluster repositories--><g id="cluster_repositories"><path d="M1570.5,675.5137 L1651.6377,675.5137 A3.75,3.75 0 0 1 1654.1377,678.0137 L1661.1377,700.1348 L2126.5,700.1348 A2.5,2.5 0 0 1 2129,702.6348 L2129,830.0137 A2.5,2.5 0 0 1 2126.5,832.5137 L1570.5,832.5137 A2.5,2.5 0 0 1 1568,830.0137 L1568,678.0137 A2.5,2.5 0 0 1 1570.5,675.5137 " fill="none" style="stroke:#000000;stroke-width:1.5;"/><line style="stroke:#000000;stroke-width:1.5;" x1="1568" x2="1661.1377" y1="700.1348" y2="700.1348"/><text fill="#000000" font-family="sans-serif" font-size="14" font-weight="bold" lengthAdjust="spacing" textLength="80.1377" x="1572" y="692.6211">repositories</text></g><!--class Deal--><g id="elem_Deal"><rect codeLine="3" fill="#F1F1F1" height="234.2109" id="Deal" rx="2.5" ry="2.5" style="stroke:#181818;stroke-width:0.5;" width="152.0615" x="247" y="313.0137"/><ellipse cx="304.3843" cy="329.0137" fill="#ADD1B2" rx="11" ry="11" style="stroke:#181818;stroke-width:1.0;"/><path d="M307.1499,324.8887 Q307.3062,324.6699 307.4937,324.5605 Q307.6812,324.4512 307.8999,324.4512 Q308.2749,324.4512 308.5093,324.7168 Q308.7437,324.9668 308.7437,325.5762 L308.7437,327.0293 Q308.7437,327.6387 308.5093,327.9043 Q308.2749,328.1699 307.8999,328.1699 Q307.5562,328.1699 307.353,327.9668 Q307.1499,327.7793 307.0405,327.2637 Q306.9937,326.9043 306.8062,326.7168 Q306.478,326.3418 305.8687,326.123 Q305.2593,325.9043 304.6343,325.9043 Q303.8687,325.9043 303.228,326.2324 Q302.603,326.5605 302.103,327.3105 Q301.6187,328.0605 301.6187,329.0918 L301.6187,330.1855 Q301.6187,331.4199 302.5093,332.248 Q303.3999,333.0605 304.9937,333.0605 Q305.9312,333.0605 306.5874,332.8105 Q306.978,332.6543 307.3999,332.2168 Q307.6655,331.9512 307.8062,331.873 Q307.9624,331.7949 308.1655,331.7949 Q308.4937,331.7949 308.7437,332.0605 Q309.0093,332.3105 309.0093,332.6543 Q309.0093,332.998 308.6655,333.4043 Q308.1655,333.9824 307.3687,334.3105 Q306.2905,334.7637 304.9937,334.7637 Q303.478,334.7637 302.2749,334.1387 Q301.2905,333.6387 300.603,332.5762 Q299.9155,331.498 299.9155,330.2168 L299.9155,329.0605 Q299.9155,327.7324 300.5249,326.5918 Q301.1499,325.4355 302.2437,324.8262 Q303.3374,324.2012 304.5718,324.2012 Q305.3062,324.2012 305.9468,324.373 Q306.603,324.5293 307.1499,324.8887 Z " fill="#000000"/><text fill="#000000" font-family="sans-serif" font-size="14" lengthAdjust="spacing" textLength="28.793" x="324.8843" y="334.8105">Deal</text><line style="stroke:#181818;stroke-width:0.5;" x1="248" x2="398.0615" y1="345.0137" y2="345.0137"/><rect fill="none" height="6" style="stroke:#C82930;stroke-width:1.0;" width="6" x="255" y="356.8242"/><text fill="#000000" font-family="sans-serif" font-size="14" lengthAdjust="spacing" textLength="33.4619" x="267" y="364.1211">id: int</text><rect fill="none" height="6" style="stroke:#C82930;stroke-width:1.0;" width="6" x="255" y="375.4453"/><text fill="#000000" font-family="sans-serif" font-size="14" lengthAdjust="spacing" textLength="126.0615" x="267" y="382.7422">currency_pair_id: int</text><rect fill="none" height="6" style="stroke:#C82930;stroke-width:1.0;" width="6" x="255" y="394.0664"/><text fill="#000000" font-family="sans-serif" font-size="14" lengthAdjust="spacing" textLength="79.3652" x="267" y="401.3633">status: string</text><rect fill="none" height="6" style="stroke:#C82930;stroke-width:1.0;" width="6" x="255" y="412.6875"/><text fill="#000000" font-family="sans-serif" font-size="14" lengthAdjust="spacing" textLength="106.6064" x="267" y="419.9844">buy_order: Order</text><rect fill="none" height="6" style="stroke:#C82930;stroke-width:1.0;" width="6" x="255" y="431.3086"/><text fill="#000000" font-family="sans-serif" font-size="14" lengthAdjust="spacing" textLength="105.041" x="267" y="438.6055">sell_order: Order</text><rect fill="none" height="6" style="stroke:#C82930;stroke-width:1.0;" width="6" x="255" y="449.9297"/><text fill="#000000" font-family="sans-serif" font-size="14" lengthAdjust="spacing" textLength="88.7236" x="267" y="457.2266">created_at: int</text><rect fill="none" height="6" style="stroke:#C82930;stroke-width:1.0;" width="6" x="255" y="468.5508"/><text fill="#000000" font-family="sans-serif" font-size="14" lengthAdjust="spacing" textLength="82.4961" x="267" y="475.8477">closed_at: int</text><line style="stroke:#181818;stroke-width:0.5;" x1="248" x2="398.0615" y1="483.3613" y2="483.3613"/><ellipse cx="258" cy="498.1719" fill="#84BE84" rx="3" ry="3" style="stroke:#038048;stroke-width:1.0;"/><text fill="#000000" font-family="sans-serif" font-size="14" lengthAdjust="spacing" textLength="40.4688" x="267" y="502.4688">open()</text><ellipse cx="258" cy="516.793" fill="#84BE84" rx="3" ry="3" style="stroke:#038048;stroke-width:1.0;"/><text fill="#000000" font-family="sans-serif" font-size="14" lengthAdjust="spacing" textLength="42.0068" x="267" y="521.0898">close()</text><ellipse cx="258" cy="535.4141" fill="#84BE84" rx="3" ry="3" style="stroke:#038048;stroke-width:1.0;"/><text fill="#000000" font-family="sans-serif" font-size="14" lengthAdjust="spacing" textLength="49.793" x="267" y="539.7109">cancel()</text></g><!--class Order--><g id="elem_Order"><rect codeLine="16" fill="#F1F1F1" height="252.832" id="Order" rx="2.5" ry="2.5" style="stroke:#181818;stroke-width:0.5;" width="147.4131" x="210.5" y="638.0137"/><ellipse cx="262.0635" cy="654.0137" fill="#ADD1B2" rx="11" ry="11" style="stroke:#181818;stroke-width:1.0;"/><path d="M264.8291,649.8887 Q264.9854,649.6699 265.1729,649.5605 Q265.3604,649.4512 265.5791,649.4512 Q265.9541,649.4512 266.1885,649.7168 Q266.4229,649.9668 266.4229,650.5762 L266.4229,652.0293 Q266.4229,652.6387 266.1885,652.9043 Q265.9541,653.1699 265.5791,653.1699 Q265.2354,653.1699 265.0322,652.9668 Q264.8291,652.7793 264.7197,652.2637 Q264.6729,651.9043 264.4854,651.7168 Q264.1572,651.3418 263.5479,651.123 Q262.9385,650.9043 262.3135,650.9043 Q261.5479,650.9043 260.9072,651.2324 Q260.2822,651.5605 259.7822,652.3105 Q259.2979,653.0605 259.2979,654.0918 L259.2979,655.1855 Q259.2979,656.4199 260.1885,657.248 Q261.0791,658.0605 262.6729,658.0605 Q263.6104,658.0605 264.2666,657.8105 Q264.6572,657.6543 265.0791,657.2168 Q265.3447,656.9512 265.4854,656.873 Q265.6416,656.7949 265.8447,656.7949 Q266.1729,656.7949 266.4229,657.0605 Q266.6885,657.3105 266.6885,657.6543 Q266.6885,657.998 266.3447,658.4043 Q265.8447,658.9824 265.0479,659.3105 Q263.9697,659.7637 262.6729,659.7637 Q261.1572,659.7637 259.9541,659.1387 Q258.9697,658.6387 258.2822,657.5762 Q257.5947,656.498 257.5947,655.2168 L257.5947,654.0605 Q257.5947,652.7324 258.2041,651.5918 Q258.8291,650.4355 259.9229,649.8262 Q261.0166,649.2012 262.251,649.2012 Q262.9854,649.2012 263.626,649.373 Q264.2822,649.5293 264.8291,649.8887 Z " fill="#000000"/><text fill="#000000" font-family="sans-serif" font-size="14" lengthAdjust="spacing" textLength="35.7861" x="282.5635" y="659.8105">Order</text><line style="stroke:#181818;stroke-width:0.5;" x1="211.5" x2="356.9131" y1="670.0137" y2="670.0137"/><rect fill="none" height="6" style="stroke:#C82930;stroke-width:1.0;" width="6" x="218.5" y="681.8242"/><text fill="#000000" font-family="sans-serif" font-size="14" lengthAdjust="spacing" textLength="33.4619" x="230.5" y="689.1211">id: int</text><rect fill="none" height="6" style="stroke:#C82930;stroke-width:1.0;" width="6" x="218.5" y="700.4453"/><text fill="#000000" font-family="sans-serif" font-size="14" lengthAdjust="spacing" textLength="68.4756" x="230.5" y="707.7422">type: string</text><rect fill="none" height="6" style="stroke:#C82930;stroke-width:1.0;" width="6" x="218.5" y="719.0664"/><text fill="#000000" font-family="sans-serif" font-size="14" lengthAdjust="spacing" textLength="67.6963" x="230.5" y="726.3633">side: string</text><rect fill="none" height="6" style="stroke:#C82930;stroke-width:1.0;" width="6" x="218.5" y="737.6875"/><text fill="#000000" font-family="sans-serif" font-size="14" lengthAdjust="spacing" textLength="79.3652" x="230.5" y="744.9844">status: string</text><rect fill="none" height="6" style="stroke:#C82930;stroke-width:1.0;" width="6" x="218.5" y="756.3086"/><text fill="#000000" font-family="sans-serif" font-size="14" lengthAdjust="spacing" textLength="64.5859" x="230.5" y="763.6055">price: float</text><rect fill="none" height="6" style="stroke:#C82930;stroke-width:1.0;" width="6" x="218.5" y="774.9297"/><text fill="#000000" font-family="sans-serif" font-size="14" lengthAdjust="spacing" textLength="80.9375" x="230.5" y="782.2266">amount: float</text><rect fill="none" height="6" style="stroke:#C82930;stroke-width:1.0;" width="6" x="218.5" y="793.5508"/><text fill="#000000" font-family="sans-serif" font-size="14" lengthAdjust="spacing" textLength="121.4131" x="230.5" y="800.8477">exchange_id: string</text><line style="stroke:#181818;stroke-width:0.5;" x1="211.5" x2="356.9131" y1="808.3613" y2="808.3613"/><ellipse cx="221.5" cy="823.1719" fill="#84BE84" rx="3" ry="3" style="stroke:#038048;stroke-width:1.0;"/><text fill="#000000" font-family="sans-serif" font-size="14" lengthAdjust="spacing" textLength="42.793" x="230.5" y="827.4688">place()</text><ellipse cx="221.5" cy="841.793" fill="#84BE84" rx="3" ry="3" style="stroke:#038048;stroke-width:1.0;"/><text fill="#000000" font-family="sans-serif" font-size="14" lengthAdjust="spacing" textLength="49.793" x="230.5" y="846.0898">cancel()</text><ellipse cx="221.5" cy="860.4141" fill="#84BE84" rx="3" ry="3" style="stroke:#038048;stroke-width:1.0;"/><text fill="#000000" font-family="sans-serif" font-size="14" lengthAdjust="spacing" textLength="58.3652" x="230.5" y="864.7109">is_open()</text><ellipse cx="221.5" cy="879.0352" fill="#84BE84" rx="3" ry="3" style="stroke:#038048;stroke-width:1.0;"/><text fill="#000000" font-family="sans-serif" font-size="14" lengthAdjust="spacing" textLength="67.6895" x="230.5" y="883.332">is_closed()</text></g><!--class CurrencyPair--><g id="elem_CurrencyPair"><rect codeLine="30" fill="#F1F1F1" height="178.3477" id="CurrencyPair" rx="2.5" ry="2.5" style="stroke:#181818;stroke-width:0.5;" width="164.5166" x="46.5" y="341.0137"/><ellipse cx="84.3722" cy="357.0137" fill="#ADD1B2" rx="11" ry="11" style="stroke:#181818;stroke-width:1.0;"/><path d="M87.1378,352.8887 Q87.2941,352.6699 87.4816,352.5605 Q87.6691,352.4512 87.8878,352.4512 Q88.2628,352.4512 88.4972,352.7168 Q88.7316,352.9668 88.7316,353.5762 L88.7316,355.0293 Q88.7316,355.6387 88.4972,355.9043 Q88.2628,356.1699 87.8878,356.1699 Q87.5441,356.1699 87.341,355.9668 Q87.1378,355.7793 87.0285,355.2637 Q86.9816,354.9043 86.7941,354.7168 Q86.466,354.3418 85.8566,354.123 Q85.2472,353.9043 84.6222,353.9043 Q83.8566,353.9043 83.216,354.2324 Q82.591,354.5605 82.091,355.3105 Q81.6066,356.0605 81.6066,357.0918 L81.6066,358.1855 Q81.6066,359.4199 82.4972,360.248 Q83.3878,361.0605 84.9816,361.0605 Q85.9191,361.0605 86.5753,360.8105 Q86.966,360.6543 87.3878,360.2168 Q87.6535,359.9512 87.7941,359.873 Q87.9503,359.7949 88.1535,359.7949 Q88.4816,359.7949 88.7316,360.0605 Q88.9972,360.3105 88.9972,360.6543 Q88.9972,360.998 88.6535,361.4043 Q88.1535,361.9824 87.3566,362.3105 Q86.2785,362.7637 84.9816,362.7637 Q83.466,362.7637 82.2628,362.1387 Q81.2785,361.6387 80.591,360.5762 Q79.9035,359.498 79.9035,358.2168 L79.9035,357.0605 Q79.9035,355.7324 80.5128,354.5918 Q81.1378,353.4355 82.2316,352.8262 Q83.3253,352.2012 84.5597,352.2012 Q85.2941,352.2012 85.9347,352.373 Q86.591,352.5293 87.1378,352.8887 Z " fill="#000000"/><text fill="#000000" font-family="sans-serif" font-size="14" lengthAdjust="spacing" textLength="81.6895" x="103.4549" y="362.8105">CurrencyPair</text><line style="stroke:#181818;stroke-width:0.5;" x1="47.5" x2="210.0166" y1="373.0137" y2="373.0137"/><rect fill="none" height="6" style="stroke:#C82930;stroke-width:1.0;" width="6" x="54.5" y="384.8242"/><text fill="#000000" font-family="sans-serif" font-size="14" lengthAdjust="spacing" textLength="133.8408" x="66.5" y="392.1211">base_currency: string</text><rect fill="none" height="6" style="stroke:#C82930;stroke-width:1.0;" width="6" x="54.5" y="403.4453"/><text fill="#000000" font-family="sans-serif" font-size="14" lengthAdjust="spacing" textLength="138.5166" x="66.5" y="410.7422">quote_currency: string</text><rect fill="none" height="6" style="stroke:#C82930;stroke-width:1.0;" width="6" x="54.5" y="422.0664"/><text fill="#000000" font-family="sans-serif" font-size="14" lengthAdjust="spacing" textLength="86.3584" x="66.5" y="429.3633">symbol: string</text><rect fill="none" height="6" style="stroke:#C82930;stroke-width:1.0;" width="6" x="54.5" y="440.6875"/><text fill="#000000" font-family="sans-serif" font-size="14" lengthAdjust="spacing" textLength="115.165" x="66.5" y="447.9844">order_life_time: int</text><rect fill="none" height="6" style="stroke:#C82930;stroke-width:1.0;" width="6" x="54.5" y="459.3086"/><text fill="#000000" font-family="sans-serif" font-size="14" lengthAdjust="spacing" textLength="103.5303" x="66.5" y="466.6055">deal_quota: float</text><rect fill="none" height="6" style="stroke:#C82930;stroke-width:1.0;" width="6" x="54.5" y="477.9297"/><text fill="#000000" font-family="sans-serif" font-size="14" lengthAdjust="spacing" textLength="119.834" x="66.5" y="485.2266">profit_markup: float</text><rect fill="none" height="6" style="stroke:#C82930;stroke-width:1.0;" width="6" x="54.5" y="496.5508"/><text fill="#000000" font-family="sans-serif" font-size="14" lengthAdjust="spacing" textLength="91.0684" x="66.5" y="503.8477">deal_count: int</text><line style="stroke:#181818;stroke-width:0.5;" x1="47.5" x2="210.0166" y1="511.3613" y2="511.3613"/></g><!--class DealFactory--><g id="elem_DealFactory"><rect codeLine="42" fill="#F1F1F1" height="66.6211" id="DealFactory" rx="2.5" ry="2.5" style="stroke:#181818;stroke-width:0.5;" width="302.2334" x="455" y="731.0137"/><ellipse cx="564.1323" cy="747.0137" fill="#ADD1B2" rx="11" ry="11" style="stroke:#181818;stroke-width:1.0;"/><path d="M566.8979,742.8887 Q567.0542,742.6699 567.2417,742.5605 Q567.4292,742.4512 567.6479,742.4512 Q568.0229,742.4512 568.2573,742.7168 Q568.4917,742.9668 568.4917,743.5762 L568.4917,745.0293 Q568.4917,745.6387 568.2573,745.9043 Q568.0229,746.1699 567.6479,746.1699 Q567.3042,746.1699 567.1011,745.9668 Q566.8979,745.7793 566.7886,745.2637 Q566.7417,744.9043 566.5542,744.7168 Q566.2261,744.3418 565.6167,744.123 Q565.0073,743.9043 564.3823,743.9043 Q563.6167,743.9043 562.9761,744.2324 Q562.3511,744.5605 561.8511,745.3105 Q561.3667,746.0605 561.3667,747.0918 L561.3667,748.1855 Q561.3667,749.4199 562.2573,750.248 Q563.1479,751.0605 564.7417,751.0605 Q565.6792,751.0605 566.3354,750.8105 Q566.7261,750.6543 567.1479,750.2168 Q567.4136,749.9512 567.5542,749.873 Q567.7104,749.7949 567.9136,749.7949 Q568.2417,749.7949 568.4917,750.0605 Q568.7573,750.3105 568.7573,750.6543 Q568.7573,750.998 568.4136,751.4043 Q567.9136,751.9824 567.1167,752.3105 Q566.0386,752.7637 564.7417,752.7637 Q563.2261,752.7637 562.0229,752.1387 Q561.0386,751.6387 560.3511,750.5762 Q559.6636,749.498 559.6636,748.2168 L559.6636,747.0605 Q559.6636,745.7324 560.2729,744.5918 Q560.8979,743.4355 561.9917,742.8262 Q563.0854,742.2012 564.3198,742.2012 Q565.0542,742.2012 565.6948,742.373 Q566.3511,742.5293 566.8979,742.8887 Z " fill="#000000"/><text fill="#000000" font-family="sans-serif" font-size="14" lengthAdjust="spacing" textLength="75.4688" x="584.6323" y="752.8105">DealFactory</text><line style="stroke:#181818;stroke-width:0.5;" x1="456" x2="756.2334" y1="763.0137" y2="763.0137"/><line style="stroke:#181818;stroke-width:0.5;" x1="456" x2="756.2334" y1="771.0137" y2="771.0137"/><ellipse cx="466" cy="785.8242" fill="#84BE84" rx="3" ry="3" style="stroke:#038048;stroke-width:1.0;"/><text fill="#000000" font-family="sans-serif" font-size="14" lengthAdjust="spacing" textLength="276.2334" x="475" y="790.1211">create_new_deal(cp: CurrencyPair, ...): Deal</text></g><!--class OrderFactory--><g id="elem_OrderFactory"><rect codeLine="46" fill="#F1F1F1" height="85.2422" id="OrderFactory" rx="2.5" ry="2.5" style="stroke:#181818;stroke-width:0.5;" width="312.3301" x="792" y="722.0137"/><ellipse cx="902.6841" cy="738.0137" fill="#ADD1B2" rx="11" ry="11" style="stroke:#181818;stroke-width:1.0;"/><path d="M905.4497,733.8887 Q905.606,733.6699 905.7935,733.5605 Q905.981,733.4512 906.1997,733.4512 Q906.5747,733.4512 906.8091,733.7168 Q907.0435,733.9668 907.0435,734.5762 L907.0435,736.0293 Q907.0435,736.6387 906.8091,736.9043 Q906.5747,737.1699 906.1997,737.1699 Q905.856,737.1699 905.6528,736.9668 Q905.4497,736.7793 905.3403,736.2637 Q905.2935,735.9043 905.106,735.7168 Q904.7778,735.3418 904.1685,735.123 Q903.5591,734.9043 902.9341,734.9043 Q902.1685,734.9043 901.5278,735.2324 Q900.9028,735.5605 900.4028,736.3105 Q899.9185,737.0605 899.9185,738.0918 L899.9185,739.1855 Q899.9185,740.4199 900.8091,741.248 Q901.6997,742.0605 903.2935,742.0605 Q904.231,742.0605 904.8872,741.8105 Q905.2778,741.6543 905.6997,741.2168 Q905.9653,740.9512 906.106,740.873 Q906.2622,740.7949 906.4653,740.7949 Q906.7935,740.7949 907.0435,741.0605 Q907.3091,741.3105 907.3091,741.6543 Q907.3091,741.998 906.9653,742.4043 Q906.4653,742.9824 905.6685,743.3105 Q904.5903,743.7637 903.2935,743.7637 Q901.7778,743.7637 900.5747,743.1387 Q899.5903,742.6387 898.9028,741.5762 Q898.2153,740.498 898.2153,739.2168 L898.2153,738.0605 Q898.2153,736.7324 898.8247,735.5918 Q899.4497,734.4355 900.5435,733.8262 Q901.6372,733.2012 902.8716,733.2012 Q903.606,733.2012 904.2466,733.373 Q904.9028,733.5293 905.4497,733.8887 Z " fill="#000000"/><text fill="#000000" font-family="sans-serif" font-size="14" lengthAdjust="spacing" textLength="82.4619" x="923.1841" y="743.8105">OrderFactory</text><line style="stroke:#181818;stroke-width:0.5;" x1="793" x2="1103.3301" y1="754.0137" y2="754.0137"/><line style="stroke:#181818;stroke-width:0.5;" x1="793" x2="1103.3301" y1="762.0137" y2="762.0137"/><ellipse cx="803" cy="776.8242" fill="#84BE84" rx="3" ry="3" style="stroke:#038048;stroke-width:1.0;"/><text fill="#000000" font-family="sans-serif" font-size="14" lengthAdjust="spacing" textLength="286.3301" x="812" y="781.1211">create_buy_order(cp: CurrencyPair, ...): Order</text><ellipse cx="803" cy="795.4453" fill="#84BE84" rx="3" ry="3" style="stroke:#038048;stroke-width:1.0;"/><text fill="#000000" font-family="sans-serif" font-size="14" lengthAdjust="spacing" textLength="284.7646" x="812" y="799.7422">create_sell_order(cp: CurrencyPair, ...): Order</text></g><!--class TradingService--><g id="elem_TradingService"><rect codeLine="53" fill="#F1F1F1" height="141.1055" id="TradingService" rx="2.5" ry="2.5" style="stroke:#181818;stroke-width:0.5;" width="331.8604" x="704" y="88.0137"/><ellipse cx="818.6045" cy="104.0137" fill="#ADD1B2" rx="11" ry="11" style="stroke:#181818;stroke-width:1.0;"/><path d="M821.3701,99.8887 Q821.5264,99.6699 821.7139,99.5605 Q821.9014,99.4512 822.1201,99.4512 Q822.4951,99.4512 822.7295,99.7168 Q822.9639,99.9668 822.9639,100.5762 L822.9639,102.0293 Q822.9639,102.6387 822.7295,102.9043 Q822.4951,103.1699 822.1201,103.1699 Q821.7764,103.1699 821.5732,102.9668 Q821.3701,102.7793 821.2607,102.2637 Q821.2139,101.9043 821.0264,101.7168 Q820.6982,101.3418 820.0889,101.123 Q819.4795,100.9043 818.8545,100.9043 Q818.0889,100.9043 817.4482,101.2324 Q816.8232,101.5605 816.3232,102.3105 Q815.8389,103.0605 815.8389,104.0918 L815.8389,105.1855 Q815.8389,106.4199 816.7295,107.248 Q817.6201,108.0605 819.2139,108.0605 Q820.1514,108.0605 820.8076,107.8105 Q821.1982,107.6543 821.6201,107.2168 Q821.8857,106.9512 822.0264,106.873 Q822.1826,106.7949 822.3857,106.7949 Q822.7139,106.7949 822.9639,107.0605 Q823.2295,107.3105 823.2295,107.6543 Q823.2295,107.998 822.8857,108.4043 Q822.3857,108.9824 821.5889,109.3105 Q820.5107,109.7637 819.2139,109.7637 Q817.6982,109.7637 816.4951,109.1387 Q815.5107,108.6387 814.8232,107.5762 Q814.1357,106.498 814.1357,105.2168 L814.1357,104.0605 Q814.1357,102.7324 814.7451,101.5918 Q815.3701,100.4355 816.4639,99.8262 Q817.5576,99.2012 818.792,99.2012 Q819.5264,99.2012 820.167,99.373 Q820.8232,99.5293 821.3701,99.8887 Z " fill="#000000"/><text fill="#000000" font-family="sans-serif" font-size="14" lengthAdjust="spacing" textLength="94.1514" x="839.1045" y="109.8105">TradingService</text><line style="stroke:#181818;stroke-width:0.5;" x1="705" x2="1034.8604" y1="120.0137" y2="120.0137"/><rect fill="none" height="6" style="stroke:#C82930;stroke-width:1.0;" width="6" x="712" y="131.8242"/><text fill="#000000" font-family="sans-serif" font-size="14" lengthAdjust="spacing" textLength="159.5166" x="724" y="139.1211">deal_factory: DealFactory</text><rect fill="none" height="6" style="stroke:#C82930;stroke-width:1.0;" width="6" x="712" y="150.4453"/><text fill="#000000" font-family="sans-serif" font-size="14" lengthAdjust="spacing" textLength="179.7646" x="724" y="157.7422">deals_repo: DealsRepository</text><rect fill="none" height="6" style="stroke:#C82930;stroke-width:1.0;" width="6" x="712" y="169.0664"/><text fill="#000000" font-family="sans-serif" font-size="14" lengthAdjust="spacing" textLength="175.0615" x="724" y="176.3633">order_service: OrderService</text><line style="stroke:#181818;stroke-width:0.5;" x1="705" x2="1034.8604" y1="183.877" y2="183.877"/><ellipse cx="715" cy="198.6875" fill="#84BE84" rx="3" ry="3" style="stroke:#038048;stroke-width:1.0;"/><text fill="#000000" font-family="sans-serif" font-size="14" lengthAdjust="spacing" textLength="299.626" x="724" y="202.9844">open_deal_if_needed(signals, cp: CurrencyPair)</text><ellipse cx="715" cy="217.3086" fill="#84BE84" rx="3" ry="3" style="stroke:#038048;stroke-width:1.0;"/><text fill="#000000" font-family="sans-serif" font-size="14" lengthAdjust="spacing" textLength="305.8604" x="724" y="221.6055">update_deal_status(deal: Deal, orders_info): void</text></g><!--class OrderService--><g id="elem_OrderService"><rect codeLine="61" fill="#F1F1F1" height="159.7266" id="OrderService" rx="2.5" ry="2.5" style="stroke:#181818;stroke-width:0.5;" width="290.626" x="744.5" y="350.0137"/><ellipse cx="844.3286" cy="366.0137" fill="#ADD1B2" rx="11" ry="11" style="stroke:#181818;stroke-width:1.0;"/><path d="M847.0942,361.8887 Q847.2505,361.6699 847.438,361.5605 Q847.6255,361.4512 847.8442,361.4512 Q848.2192,361.4512 848.4536,361.7168 Q848.688,361.9668 848.688,362.5762 L848.688,364.0293 Q848.688,364.6387 848.4536,364.9043 Q848.2192,365.1699 847.8442,365.1699 Q847.5005,365.1699 847.2974,364.9668 Q847.0942,364.7793 846.9849,364.2637 Q846.938,363.9043 846.7505,363.7168 Q846.4224,363.3418 845.813,363.123 Q845.2036,362.9043 844.5786,362.9043 Q843.813,362.9043 843.1724,363.2324 Q842.5474,363.5605 842.0474,364.3105 Q841.563,365.0605 841.563,366.0918 L841.563,367.1855 Q841.563,368.4199 842.4536,369.248 Q843.3442,370.0605 844.938,370.0605 Q845.8755,370.0605 846.5317,369.8105 Q846.9224,369.6543 847.3442,369.2168 Q847.6099,368.9512 847.7505,368.873 Q847.9067,368.7949 848.1099,368.7949 Q848.438,368.7949 848.688,369.0605 Q848.9536,369.3105 848.9536,369.6543 Q848.9536,369.998 848.6099,370.4043 Q848.1099,370.9824 847.313,371.3105 Q846.2349,371.7637 844.938,371.7637 Q843.4224,371.7637 842.2192,371.1387 Q841.2349,370.6387 840.5474,369.5762 Q839.8599,368.498 839.8599,367.2168 L839.8599,366.0605 Q839.8599,364.7324 840.4692,363.5918 Q841.0942,362.4355 842.188,361.8262 Q843.2817,361.2012 844.5161,361.2012 Q845.2505,361.2012 845.8911,361.373 Q846.5474,361.5293 847.0942,361.8887 Z " fill="#000000"/><text fill="#000000" font-family="sans-serif" font-size="14" lengthAdjust="spacing" textLength="82.4688" x="864.8286" y="371.8105">OrderService</text><line style="stroke:#181818;stroke-width:0.5;" x1="745.5" x2="1034.126" y1="382.0137" y2="382.0137"/><rect fill="none" height="6" style="stroke:#C82930;stroke-width:1.0;" width="6" x="752.5" y="393.8242"/><text fill="#000000" font-family="sans-serif" font-size="14" lengthAdjust="spacing" textLength="172.7236" x="764.5" y="401.1211">order_factory: OrderFactory</text><rect fill="none" height="6" style="stroke:#C82930;stroke-width:1.0;" width="6" x="752.5" y="412.4453"/><text fill="#000000" font-family="sans-serif" font-size="14" lengthAdjust="spacing" textLength="192.9717" x="764.5" y="419.7422">orders_repo: OrdersRepository</text><rect fill="none" height="6" style="stroke:#C82930;stroke-width:1.0;" width="6" x="752.5" y="431.0664"/><text fill="#000000" font-family="sans-serif" font-size="14" lengthAdjust="spacing" textLength="264.626" x="764.5" y="438.3633">exchange_connector: ExchangeConnector</text><line style="stroke:#181818;stroke-width:0.5;" x1="745.5" x2="1034.126" y1="445.877" y2="445.877"/><ellipse cx="755.5" cy="460.6875" fill="#84BE84" rx="3" ry="3" style="stroke:#038048;stroke-width:1.0;"/><text fill="#000000" font-family="sans-serif" font-size="14" lengthAdjust="spacing" textLength="125.2891" x="764.5" y="464.9844">place_buy_order(...)</text><ellipse cx="755.5" cy="479.3086" fill="#84BE84" rx="3" ry="3" style="stroke:#038048;stroke-width:1.0;"/><text fill="#000000" font-family="sans-serif" font-size="14" lengthAdjust="spacing" textLength="123.7236" x="764.5" y="483.6055">place_sell_order(...)</text><ellipse cx="755.5" cy="497.9297" fill="#84BE84" rx="3" ry="3" style="stroke:#038048;stroke-width:1.0;"/><text fill="#000000" font-family="sans-serif" font-size="14" lengthAdjust="spacing" textLength="101.9307" x="764.5" y="502.2266">cancel_order(...)</text></g><!--class ExchangeConnector--><g id="elem_ExchangeConnector"><rect codeLine="72" fill="#F1F1F1" height="141.1055" id="ExchangeConnector" rx="2.5" ry="2.5" style="stroke:#181818;stroke-width:0.5;" width="319.3506" x="1208.5" y="694.0137"/><ellipse cx="1300.4946" cy="710.0137" fill="#B4A7E5" rx="11" ry="11" style="stroke:#181818;stroke-width:1.0;"/><path d="M1301.4478,706.6543 L1301.4478,713.3105 L1303.1665,713.3105 Q1303.7759,713.3105 1304.0415,713.5449 Q1304.3071,713.7793 1304.3071,714.1699 Q1304.3071,714.5449 1304.0415,714.7793 Q1303.7759,715.0137 1303.1665,715.0137 L1298.0259,715.0137 Q1297.4165,715.0137 1297.1509,714.7793 Q1296.8853,714.5449 1296.8853,714.1543 Q1296.8853,713.7793 1297.1509,713.5449 Q1297.4165,713.3105 1298.0259,713.3105 L1299.7446,713.3105 L1299.7446,706.6543 L1298.0259,706.6543 Q1297.4165,706.6543 1297.1509,706.4199 Q1296.8853,706.1855 1296.8853,705.7949 Q1296.8853,705.4199 1297.1509,705.1855 Q1297.4165,704.9512 1298.0259,704.9512 L1303.1665,704.9512 Q1303.7759,704.9512 1304.0415,705.1855 Q1304.3071,705.4199 1304.3071,705.7949 Q1304.3071,706.1855 1304.0415,706.4199 Q1303.7759,706.6543 1303.1665,706.6543 L1301.4478,706.6543 Z " fill="#000000"/><text fill="#000000" font-family="sans-serif" font-size="14" font-style="italic" lengthAdjust="spacing" textLength="126.8613" x="1320.9946" y="715.8105">ExchangeConnector</text><line style="stroke:#181818;stroke-width:0.5;" x1="1209.5" x2="1526.8506" y1="726.0137" y2="726.0137"/><line style="stroke:#181818;stroke-width:0.5;" x1="1209.5" x2="1526.8506" y1="734.0137" y2="734.0137"/><ellipse cx="1219.5" cy="748.8242" fill="#84BE84" rx="3" ry="3" style="stroke:#038048;stroke-width:1.0;"/><text fill="#000000" font-family="sans-serif" font-size="14" lengthAdjust="spacing" textLength="96.5029" x="1228.5" y="753.1211">fetch_balance()</text><ellipse cx="1219.5" cy="767.4453" fill="#84BE84" rx="3" ry="3" style="stroke:#038048;stroke-width:1.0;"/><text fill="#000000" font-family="sans-serif" font-size="14" lengthAdjust="spacing" textLength="293.3506" x="1228.5" y="771.7422">create_order(symbol, side, type, amount, price)</text><ellipse cx="1219.5" cy="786.0664" fill="#84BE84" rx="3" ry="3" style="stroke:#038048;stroke-width:1.0;"/><text fill="#000000" font-family="sans-serif" font-size="14" lengthAdjust="spacing" textLength="193.751" x="1228.5" y="790.3633">cancel_order(order_id, symbol)</text><ellipse cx="1219.5" cy="804.6875" fill="#84BE84" rx="3" ry="3" style="stroke:#038048;stroke-width:1.0;"/><text fill="#000000" font-family="sans-serif" font-size="14" lengthAdjust="spacing" textLength="267.627" x="1228.5" y="808.9844">fetch_ohlcv(symbol, timeframe, since, limit)</text><ellipse cx="1219.5" cy="823.3086" fill="#84BE84" rx="3" ry="3" style="stroke:#038048;stroke-width:1.0;"/><text fill="#000000" font-family="sans-serif" font-size="14" lengthAdjust="spacing" textLength="131.4893" x="1228.5" y="827.6055">fetch_orders(symbol)</text></g><!--class DealsRepository--><g id="elem_DealsRepository"><rect codeLine="82" fill="#F1F1F1" height="103.8633" id="DealsRepository" rx="2.5" ry="2.5" style="stroke:#181818;stroke-width:0.5;" width="209.6816" x="1903" y="712.5137"/><ellipse cx="1952.2358" cy="728.5137" fill="#B4A7E5" rx="11" ry="11" style="stroke:#181818;stroke-width:1.0;"/><path d="M1953.189,725.1543 L1953.189,731.8105 L1954.9077,731.8105 Q1955.5171,731.8105 1955.7827,732.0449 Q1956.0483,732.2793 1956.0483,732.6699 Q1956.0483,733.0449 1955.7827,733.2793 Q1955.5171,733.5137 1954.9077,733.5137 L1949.7671,733.5137 Q1949.1577,733.5137 1948.8921,733.2793 Q1948.6265,733.0449 1948.6265,732.6543 Q1948.6265,732.2793 1948.8921,732.0449 Q1949.1577,731.8105 1949.7671,731.8105 L1951.4858,731.8105 L1951.4858,725.1543 L1949.7671,725.1543 Q1949.1577,725.1543 1948.8921,724.9199 Q1948.6265,724.6855 1948.6265,724.2949 Q1948.6265,723.9199 1948.8921,723.6855 Q1949.1577,723.4512 1949.7671,723.4512 L1954.9077,723.4512 Q1955.5171,723.4512 1955.7827,723.6855 Q1956.0483,723.9199 1956.0483,724.2949 Q1956.0483,724.6855 1955.7827,724.9199 Q1955.5171,725.1543 1954.9077,725.1543 L1953.189,725.1543 Z " fill="#000000"/><text fill="#000000" font-family="sans-serif" font-size="14" font-style="italic" lengthAdjust="spacing" textLength="102.71" x="1972.7358" y="734.3105">DealsRepository</text><line style="stroke:#181818;stroke-width:0.5;" x1="1904" x2="2111.6816" y1="744.5137" y2="744.5137"/><line style="stroke:#181818;stroke-width:0.5;" x1="1904" x2="2111.6816" y1="752.5137" y2="752.5137"/><ellipse cx="1914" cy="767.3242" fill="#84BE84" rx="3" ry="3" style="stroke:#038048;stroke-width:1.0;"/><text fill="#000000" font-family="sans-serif" font-size="14" lengthAdjust="spacing" textLength="101.9375" x="1923" y="771.6211">save(deal: Deal)</text><ellipse cx="1914" cy="785.9453" fill="#84BE84" rx="3" ry="3" style="stroke:#038048;stroke-width:1.0;"/><text fill="#000000" font-family="sans-serif" font-size="14" lengthAdjust="spacing" textLength="174.3301" x="1923" y="790.2422">get_by_id(deal_id: int): Deal</text><ellipse cx="1914" cy="804.5664" fill="#84BE84" rx="3" ry="3" style="stroke:#038048;stroke-width:1.0;"/><text fill="#000000" font-family="sans-serif" font-size="14" lengthAdjust="spacing" textLength="183.6816" x="1923" y="808.8633">get_open_deals(): List&lt;Deal&gt;</text></g><!--class OrdersRepository--><g id="elem_OrdersRepository"><rect codeLine="88" fill="#F1F1F1" height="103.8633" id="OrdersRepository" rx="2.5" ry="2.5" style="stroke:#181818;stroke-width:0.5;" width="282.8262" x="1584.5" y="712.5137"/><ellipse cx="1666.8115" cy="728.5137" fill="#B4A7E5" rx="11" ry="11" style="stroke:#181818;stroke-width:1.0;"/><path d="M1667.7646,725.1543 L1667.7646,731.8105 L1669.4834,731.8105 Q1670.0928,731.8105 1670.3584,732.0449 Q1670.624,732.2793 1670.624,732.6699 Q1670.624,733.0449 1670.3584,733.2793 Q1670.0928,733.5137 1669.4834,733.5137 L1664.3428,733.5137 Q1663.7334,733.5137 1663.4678,733.2793 Q1663.2021,733.0449 1663.2021,732.6543 Q1663.2021,732.2793 1663.4678,732.0449 Q1663.7334,731.8105 1664.3428,731.8105 L1666.0615,731.8105 L1666.0615,725.1543 L1664.3428,725.1543 Q1663.7334,725.1543 1663.4678,724.9199 Q1663.2021,724.6855 1663.2021,724.2949 Q1663.2021,723.9199 1663.4678,723.6855 Q1663.7334,723.4512 1664.3428,723.4512 L1669.4834,723.4512 Q1670.0928,723.4512 1670.3584,723.6855 Q1670.624,723.9199 1670.624,724.2949 Q1670.624,724.6855 1670.3584,724.9199 Q1670.0928,725.1543 1669.4834,725.1543 L1667.7646,725.1543 Z " fill="#000000"/><text fill="#000000" font-family="sans-serif" font-size="14" font-style="italic" lengthAdjust="spacing" textLength="109.7031" x="1687.3115" y="734.3105">OrdersRepository</text><line style="stroke:#181818;stroke-width:0.5;" x1="1585.5" x2="1866.3262" y1="744.5137" y2="744.5137"/><line style="stroke:#181818;stroke-width:0.5;" x1="1585.5" x2="1866.3262" y1="752.5137" y2="752.5137"/><ellipse cx="1595.5" cy="767.3242" fill="#84BE84" rx="3" ry="3" style="stroke:#038048;stroke-width:1.0;"/><text fill="#000000" font-family="sans-serif" font-size="14" lengthAdjust="spacing" textLength="115.1445" x="1604.5" y="771.6211">save(order: Order)</text><ellipse cx="1595.5" cy="785.9453" fill="#84BE84" rx="3" ry="3" style="stroke:#038048;stroke-width:1.0;"/><text fill="#000000" font-family="sans-serif" font-size="14" lengthAdjust="spacing" textLength="187.5371" x="1604.5" y="790.2422">get_by_id(order_id: int): Order</text><ellipse cx="1595.5" cy="804.5664" fill="#84BE84" rx="3" ry="3" style="stroke:#038048;stroke-width:1.0;"/><text fill="#000000" font-family="sans-serif" font-size="14" lengthAdjust="spacing" textLength="256.8262" x="1604.5" y="808.8633">get_all_by_deal(deal_id: int): List&lt;Order&gt;</text></g><!--link Deal to Order--><g id="link_Deal_Order"><path codeLine="95" d="M309.36,547.3037 C305.92,576.6137 302.9193,602.2446 299.4293,631.9846 " fill="none" id="Deal-to-Order" style="stroke:#181818;stroke-width:1.0;"/><polygon fill="#181818" points="298.73,637.9437,303.7517,629.4712,299.3128,632.9777,295.8062,628.5388,298.73,637.9437" style="stroke:#181818;stroke-width:1.0;"/><text fill="#000000" font-family="sans-serif" font-size="13" lengthAdjust="spacing" textLength="153.918" x="307" y="592.042">uses buy_order, sell_order</text></g><!--link TradingService to Deal--><g id="link_TradingService_Deal"><path codeLine="97" d="M703.82,221.4737 C675.22,233.2437 646.02,245.9837 619,259.0137 C542.14,296.0837 463.2113,342.1176 404.3813,378.0276 " fill="none" id="TradingService-to-Deal" style="stroke:#181818;stroke-width:1.0;"/><polygon fill="#181818" points="399.26,381.1537,409.026,379.8788,403.5278,378.5486,404.8579,373.0504,399.26,381.1537" style="stroke:#181818;stroke-width:1.0;"/></g><!--link TradingService to CurrencyPair--><g id="link_TradingService_CurrencyPair"><path codeLine="98" d="M703.76,172.1437 C540.33,187.2737 304.72,217.1637 229,268.0137 C202.37,285.8937 184.485,308.3032 168.875,335.6432 " fill="none" id="TradingService-to-CurrencyPair" style="stroke:#181818;stroke-width:1.0;"/><polygon fill="#181818" points="165.9,340.8537,173.8362,335.0212,168.3792,336.5116,166.8888,331.0546,165.9,340.8537" style="stroke:#181818;stroke-width:1.0;"/></g><!--link TradingService to DealFactory--><g id="link_TradingService_DealFactory"><path codeLine="99" d="M760.65,229.2837 C747.93,240.9837 736.23,253.9437 727,268.0137 C627.3,419.9837 609.9086,640.7877 606.8486,724.7377 " fill="none" id="TradingService-to-DealFactory" style="stroke:#181818;stroke-width:1.0;"/><polygon fill="#181818" points="606.63,730.7337,610.9552,721.8853,606.8121,725.737,602.9605,721.5939,606.63,730.7337" style="stroke:#181818;stroke-width:1.0;"/></g><!--link TradingService to DealsRepository--><g id="link_TradingService_DealsRepository"><path codeLine="100" d="M1036.36,204.2237 C1249.28,267.3837 1622.01,398.5037 1885,604.0137 C1923.16,633.8337 1952.7781,673.0313 1974.9181,707.3613 " fill="none" id="TradingService-to-DealsRepository" style="stroke:#181818;stroke-width:1.0;"/><polygon fill="#181818" points="1978.17,712.4037,1976.6537,702.6722,1975.4601,708.2017,1969.9306,707.0081,1978.17,712.4037" style="stroke:#181818;stroke-width:1.0;"/></g><!--link TradingService to OrderService--><g id="link_TradingService_OrderService"><path codeLine="101" d="M875.18,229.2637 C877.91,266.0737 880.8263,305.4001 883.6563,343.5601 " fill="none" id="TradingService-to-OrderService" style="stroke:#181818;stroke-width:1.0;"/><polygon fill="#181818" points="884.1,349.5437,887.4234,340.2725,883.7302,344.5574,879.4453,340.8642,884.1,349.5437" style="stroke:#181818;stroke-width:1.0;"/></g><!--link OrderService to Order--><g id="link_OrderService_Order"><path codeLine="103" d="M744.38,492.7737 C663.98,525.6837 561.86,565.5437 469,596.0137 C455.89,600.3137 450.91,597.0337 439,604.0137 C409.19,621.4837 385.4144,641.905 361.7244,666.705 " fill="none" id="OrderService-to-Order" style="stroke:#181818;stroke-width:1.0;"/><polygon fill="#181818" points="357.58,671.0437,366.6891,667.2987,361.0337,667.4282,360.9042,661.7728,357.58,671.0437" style="stroke:#181818;stroke-width:1.0;"/></g><!--link OrderService to OrderFactory--><g id="link_OrderService_OrderFactory"><path codeLine="104" d="M903.82,510.2337 C915.41,576.6937 930.4792,663.0829 939.6992,715.9529 " fill="none" id="OrderService-to-OrderFactory" style="stroke:#181818;stroke-width:1.0;"/><polygon fill="#181818" points="940.73,721.8637,943.1244,712.3103,939.871,716.938,935.2433,713.6847,940.73,721.8637" style="stroke:#181818;stroke-width:1.0;"/></g><!--link OrderService to ExchangeConnector--><g id="link_OrderService_ExchangeConnector"><path codeLine="105" d="M1003.58,510.0237 C1083.93,565.9137 1185.7345,636.7274 1262.9045,690.4074 " fill="none" id="OrderService-to-ExchangeConnector" style="stroke:#181818;stroke-width:1.0;"/><polygon fill="#181818" points="1267.83,693.8337,1262.7259,685.4106,1263.7254,690.9785,1258.1575,691.978,1267.83,693.8337" style="stroke:#181818;stroke-width:1.0;"/></g><!--link OrderService to OrdersRepository--><g id="link_OrderService_OrdersRepository"><path codeLine="106" d="M1029.73,510.1637 C1095.6,543.2737 1176.59,578.1637 1254,596.0137 C1285.41,603.2537 1513.99,592.2537 1544,604.0137 C1600.91,626.3237 1647.938,670.3055 1681.378,707.9955 " fill="none" id="OrderService-to-OrdersRepository" style="stroke:#181818;stroke-width:1.0;"/><polygon fill="#181818" points="1685.36,712.4837,1682.379,703.0968,1682.0416,708.7436,1676.3948,708.4062,1685.36,712.4837" style="stroke:#181818;stroke-width:1.0;"/></g><!--SRC=[dLNBRjmW5DtFLx2SA8u_mAgoITjLfLPjzuZ1rnCK6rp0qrfL_hqy30RioQChc_k-vnukd0oWHa81jM8WZDV0DTCC5FfxG8ZsH2dq4KZlZWZT8TOsY76zdEWa9N0wuv4mYNETqaHFgZ5VoVXv4Pwc6GlPWcpGL_i9jj3tUt8gWMXeCT5PrbweGdYBn0ZyUBCSdCLw8fn2xuxFXzYMotEbBpsFK5IkMBiHxNKuIaQDOTSB4gAHGKnSvpBuGny9FuC3BGbmYyRUZ6ElTdja2cUDchD7e-pkOPdCDpEOsEI9AC1XPaNTloQXhohLF9n4NmZTl73FEi2Q3P3YrnhAO1kHv5sFKdHCuu78fsdCLSw5Ug1yeEU3wOUN1Eq8rK9k6VhPoUUbrzk5EfZ3Rsn37wd9bu9IeRgkRnhdkqECA-4YVw_6M-aRdLPsl-grtxC2UJ6iIbl-AKbhHl73Q-A47OeUehb9SKdq2aiOXTUgx-PNiSJ2JtN9k1IsP4bkciCKiyxW2wrXds9dRg9Lg6mm47KQMmk5S_FtvcZ_VHMLpwemuvqmQ5m4QtTcKZRhIutTfdDBBKA_JhzjEDv4AZW7wzsWJuli8OZIkvcGm0ulKoMZJdJ-4kVoOjAcSqdCzPgedYJKiHO_StCXG7RMRbDPP6W7cZxY4-bjidL_U0hwrFuQLswNLMx9LSjoglpUsYtOmypQQba3Drb2yTZJIuni5u5fP02RnCIeKCy6fWiNDuZZ6krbB6IOMBZqAne5XICMYbmWuLT8VmQDJxDfvUZfwtV-kWI2JMIuEXhb5wRq1sjn7pYv5b1oAgyWVT6sDGHSGn7fvh1Mn539MBhjLTJhIdBszm6-ulsktQjzTtTVFkorV_SQD2a3PwHobRp1CLZOEtMnRVR2EWZ_mozT5k_mZyz0dIwvD_Y_GAwwt8XlBoUQPFloy9Bs-d3UxBQ2aEs-LzslBfjwk_ZU6om3TBDo_m40]--></g></svg>